<svg width="150" height="75" viewBox="0 0 150 75" fill="none" xmlns="http://www.w3.org/2000/svg">
<g clip-path="url(#clip0_209_4)">
<path d="M32.7178 59.72C29.9178 59.72 27.2378 58.44 24.6778 55.88H24.4978L23.8978 59H18.4378V16.64H25.3378V27.56L25.1578 32.48C26.3978 31.4 27.7578 30.52 29.2378 29.84C30.7178 29.16 32.1978 28.82 33.6778 28.82C37.3578 28.82 40.2178 30.18 42.2578 32.9C44.2978 35.62 45.3178 39.24 45.3178 43.76C45.3178 47.12 44.7178 50 43.5178 52.4C42.3178 54.76 40.7578 56.58 38.8378 57.86C36.9578 59.1 34.9178 59.72 32.7178 59.72ZM31.2778 54.02C33.2378 54.02 34.8778 53.16 36.1978 51.44C37.5178 49.72 38.1778 47.2 38.1778 43.88C38.1778 40.92 37.6778 38.62 36.6778 36.98C35.6778 35.34 34.0578 34.52 31.8178 34.52C29.7378 34.52 27.5778 35.62 25.3378 37.82V51.56C26.3778 52.44 27.3978 53.08 28.3978 53.48C29.4378 53.84 30.3978 54.02 31.2778 54.02ZM56.5664 59.72C54.1264 59.72 52.3864 58.98 51.3464 57.5C50.3464 56.02 49.8464 54 49.8464 51.44V16.64H56.7464V51.8C56.7464 52.64 56.9064 53.24 57.2264 53.6C57.5464 53.92 57.8864 54.08 58.2464 54.08C58.4064 54.08 58.5464 54.08 58.6664 54.08C58.8264 54.04 59.0464 54 59.3264 53.96L60.2264 59.12C59.8264 59.28 59.3064 59.42 58.6664 59.54C58.0664 59.66 57.3664 59.72 56.5664 59.72ZM65.7155 71.12C64.9155 71.12 64.2155 71.06 63.6155 70.94C63.0155 70.82 62.4355 70.68 61.8755 70.52L63.1355 65.12C63.4155 65.2 63.7355 65.28 64.0955 65.36C64.4955 65.48 64.8755 65.54 65.2355 65.54C66.7955 65.54 68.0355 65.06 68.9555 64.1C69.9155 63.18 70.6355 61.98 71.1155 60.5L71.6555 58.64L60.0755 29.54H67.0955L72.1955 44C72.6355 45.28 73.0555 46.64 73.4555 48.08C73.8955 49.48 74.3355 50.88 74.7755 52.28H75.0155C75.3755 50.92 75.7355 49.54 76.0955 48.14C76.4955 46.7 76.8755 45.32 77.2355 44L81.6755 29.54H88.3355L77.6555 60.32C76.4155 63.64 74.9155 66.26 73.1555 68.18C71.3955 70.14 68.9155 71.12 65.7155 71.12ZM99.2625 59.72C97.2625 59.72 95.2625 59.34 93.2625 58.58C91.2625 57.78 89.5425 56.8 88.1025 55.64L91.3425 51.2C92.6625 52.2 93.9825 53 95.3025 53.6C96.6225 54.2 98.0225 54.5 99.5025 54.5C101.103 54.5 102.283 54.16 103.043 53.48C103.803 52.8 104.183 51.96 104.183 50.96C104.183 50.12 103.863 49.44 103.223 48.92C102.623 48.36 101.843 47.88 100.883 47.48C99.9225 47.04 98.9225 46.62 97.8825 46.22C96.6025 45.74 95.3225 45.16 94.0425 44.48C92.8025 43.76 91.7825 42.86 90.9825 41.78C90.1825 40.66 89.7825 39.28 89.7825 37.64C89.7825 35.04 90.7425 32.92 92.6625 31.28C94.5825 29.64 97.1825 28.82 100.463 28.82C102.543 28.82 104.403 29.18 106.043 29.9C107.683 30.62 109.103 31.44 110.303 32.36L107.123 36.56C106.083 35.8 105.023 35.2 103.943 34.76C102.903 34.28 101.803 34.04 100.643 34.04C99.1625 34.04 98.0625 34.36 97.3425 35C96.6225 35.6 96.2625 36.36 96.2625 37.28C96.2625 38.44 96.8625 39.32 98.0625 39.92C99.2625 40.52 100.663 41.1 102.263 41.66C103.623 42.14 104.943 42.74 106.223 43.46C107.503 44.14 108.563 45.04 109.403 46.16C110.283 47.28 110.723 48.76 110.723 50.6C110.723 53.12 109.743 55.28 107.783 57.08C105.823 58.84 102.983 59.72 99.2625 59.72ZM122.702 59.72C120.702 59.72 118.702 59.34 116.702 58.58C114.702 57.78 112.982 56.8 111.542 55.64L114.782 51.2C116.102 52.2 117.422 53 118.742 53.6C120.062 54.2 121.462 54.5 122.942 54.5C124.542 54.5 125.722 54.16 126.482 53.48C127.242 52.8 127.622 51.96 127.622 50.96C127.622 50.12 127.302 49.44 126.662 48.92C126.062 48.36 125.282 47.88 124.322 47.48C123.362 47.04 122.362 46.62 121.322 46.22C120.042 45.74 118.762 45.16 117.482 44.48C116.242 43.76 115.222 42.86 114.422 41.78C113.622 40.66 113.222 39.28 113.222 37.64C113.222 35.04 114.182 32.92 116.102 31.28C118.022 29.64 120.622 28.82 123.902 28.82C125.982 28.82 127.842 29.18 129.482 29.9C131.122 30.62 132.542 31.44 133.742 32.36L130.562 36.56C129.522 35.8 128.462 35.2 127.382 34.76C126.342 34.28 125.242 34.04 124.082 34.04C122.602 34.04 121.502 34.36 120.782 35C120.062 35.6 119.702 36.36 119.702 37.28C119.702 38.44 120.302 39.32 121.502 39.92C122.702 40.52 124.102 41.1 125.702 41.66C127.062 42.14 128.382 42.74 129.662 43.46C130.942 44.14 132.002 45.04 132.842 46.16C133.722 47.28 134.162 48.76 134.162 50.6C134.162 53.12 133.182 55.28 131.222 57.08C129.262 58.84 126.422 59.72 122.702 59.72Z" fill="#F68E9D"/>
</g>
<defs>
<clipPath id="clip0_209_4">
<rect width="150" height="75" fill="white"/>
</clipPath>
</defs>
</svg>
