<svg width="300" height="300" viewBox="0 0 300 300" fill="none" xmlns="http://www.w3.org/2000/svg">
<g clip-path="url(#clip0_208_2)">
<path d="M62.4121 195.5C56.5788 195.5 50.9954 192.833 45.6621 187.5H45.2871L44.0371 194H32.6621V105.75H47.0371V128.5L46.6621 138.75C49.2454 136.5 52.0788 134.667 55.1621 133.25C58.2454 131.833 61.3288 131.125 64.4121 131.125C72.0788 131.125 78.0371 133.958 82.2871 139.625C86.5371 145.292 88.6621 152.833 88.6621 162.25C88.6621 169.25 87.4121 175.25 84.9121 180.25C82.4121 185.167 79.1621 188.958 75.1621 191.625C71.2454 194.208 66.9954 195.5 62.4121 195.5ZM59.4121 183.625C63.4954 183.625 66.9121 181.833 69.6621 178.25C72.4121 174.667 73.7871 169.417 73.7871 162.5C73.7871 156.333 72.7454 151.542 70.6621 148.125C68.5788 144.708 65.2038 143 60.5371 143C56.2038 143 51.7038 145.292 47.0371 149.875V178.5C49.2038 180.333 51.3288 181.667 53.4121 182.5C55.5788 183.25 57.5788 183.625 59.4121 183.625ZM112.097 195.5C107.013 195.5 103.388 193.958 101.222 190.875C99.1383 187.792 98.0967 183.583 98.0967 178.25V105.75H112.472V179C112.472 180.75 112.805 182 113.472 182.75C114.138 183.417 114.847 183.75 115.597 183.75C115.93 183.75 116.222 183.75 116.472 183.75C116.805 183.667 117.263 183.583 117.847 183.5L119.722 194.25C118.888 194.583 117.805 194.875 116.472 195.125C115.222 195.375 113.763 195.5 112.097 195.5ZM131.157 219.25C129.491 219.25 128.032 219.125 126.782 218.875C125.532 218.625 124.324 218.333 123.157 218L125.782 206.75C126.366 206.917 127.032 207.083 127.782 207.25C128.616 207.5 129.407 207.625 130.157 207.625C133.407 207.625 135.991 206.625 137.907 204.625C139.907 202.708 141.407 200.208 142.407 197.125L143.532 193.25L119.407 132.625H134.032L144.657 162.75C145.574 165.417 146.449 168.25 147.282 171.25C148.199 174.167 149.116 177.083 150.032 180H150.532C151.282 177.167 152.032 174.292 152.782 171.375C153.616 168.375 154.407 165.5 155.157 162.75L164.407 132.625H178.282L156.032 196.75C153.449 203.667 150.324 209.125 146.657 213.125C142.991 217.208 137.824 219.25 131.157 219.25ZM201.047 195.5C196.88 195.5 192.714 194.708 188.547 193.125C184.38 191.458 180.797 189.417 177.797 187L184.547 177.75C187.297 179.833 190.047 181.5 192.797 182.75C195.547 184 198.464 184.625 201.547 184.625C204.88 184.625 207.339 183.917 208.922 182.5C210.505 181.083 211.297 179.333 211.297 177.25C211.297 175.5 210.63 174.083 209.297 173C208.047 171.833 206.422 170.833 204.422 170C202.422 169.083 200.339 168.208 198.172 167.375C195.505 166.375 192.839 165.167 190.172 163.75C187.589 162.25 185.464 160.375 183.797 158.125C182.13 155.792 181.297 152.917 181.297 149.5C181.297 144.083 183.297 139.667 187.297 136.25C191.297 132.833 196.714 131.125 203.547 131.125C207.88 131.125 211.755 131.875 215.172 133.375C218.589 134.875 221.547 136.583 224.047 138.5L217.422 147.25C215.255 145.667 213.047 144.417 210.797 143.5C208.63 142.5 206.339 142 203.922 142C200.839 142 198.547 142.667 197.047 144C195.547 145.25 194.797 146.833 194.797 148.75C194.797 151.167 196.047 153 198.547 154.25C201.047 155.5 203.964 156.708 207.297 157.875C210.13 158.875 212.88 160.125 215.547 161.625C218.214 163.042 220.422 164.917 222.172 167.25C224.005 169.583 224.922 172.667 224.922 176.5C224.922 181.75 222.88 186.25 218.797 190C214.714 193.667 208.797 195.5 201.047 195.5ZM249.88 195.5C245.713 195.5 241.547 194.708 237.38 193.125C233.213 191.458 229.63 189.417 226.63 187L233.38 177.75C236.13 179.833 238.88 181.5 241.63 182.75C244.38 184 247.297 184.625 250.38 184.625C253.713 184.625 256.172 183.917 257.755 182.5C259.338 181.083 260.13 179.333 260.13 177.25C260.13 175.5 259.463 174.083 258.13 173C256.88 171.833 255.255 170.833 253.255 170C251.255 169.083 249.172 168.208 247.005 167.375C244.338 166.375 241.672 165.167 239.005 163.75C236.422 162.25 234.297 160.375 232.63 158.125C230.963 155.792 230.13 152.917 230.13 149.5C230.13 144.083 232.13 139.667 236.13 136.25C240.13 132.833 245.547 131.125 252.38 131.125C256.713 131.125 260.588 131.875 264.005 133.375C267.422 134.875 270.38 136.583 272.88 138.5L266.255 147.25C264.088 145.667 261.88 144.417 259.63 143.5C257.463 142.5 255.172 142 252.755 142C249.672 142 247.38 142.667 245.88 144C244.38 145.25 243.63 146.833 243.63 148.75C243.63 151.167 244.88 153 247.38 154.25C249.88 155.5 252.797 156.708 256.13 157.875C258.963 158.875 261.713 160.125 264.38 161.625C267.047 163.042 269.255 164.917 271.005 167.25C272.838 169.583 273.755 172.667 273.755 176.5C273.755 181.75 271.713 186.25 267.63 190C263.547 193.667 257.63 195.5 249.88 195.5Z" fill="white"/>
</g>
<defs>
<clipPath id="clip0_208_2">
<rect width="300" height="300" fill="white"/>
</clipPath>
</defs>
</svg>
