<svg width="374" height="278" viewBox="0 0 374 278" fill="none" xmlns="http://www.w3.org/2000/svg">
<path d="M169.061 99.0607C169.646 98.4749 169.646 97.5251 169.061 96.9393L159.515 87.3934C158.929 86.8076 157.979 86.8076 157.393 87.3934C156.808 87.9792 156.808 88.9289 157.393 89.5147L165.879 98L157.393 106.485C156.808 107.071 156.808 108.021 157.393 108.607C157.979 109.192 158.929 109.192 159.515 108.607L169.061 99.0607ZM93 99.5H168V96.5H93V99.5Z" fill="#707070"/>
<path d="M91.9393 174.939C91.3535 175.525 91.3535 176.475 91.9393 177.061L101.485 186.607C102.071 187.192 103.021 187.192 103.607 186.607C104.192 186.021 104.192 185.071 103.607 184.485L95.1213 176L103.607 167.515C104.192 166.929 104.192 165.979 103.607 165.393C103.021 164.808 102.071 164.808 101.485 165.393L91.9393 174.939ZM235 174.5L93 174.5V177.5L235 177.5V174.5Z" fill="#707070"/>
<path d="M176.5 148L359 148" stroke="#707070" stroke-width="3"/>
<text fill="white" xml:space="preserve" style="white-space: pre" font-family="Inter" font-size="16" letter-spacing="0em"><tspan x="38.7344" y="18.3182">Client homomorphically </tspan><tspan x="52.3438" y="37.3182">encrypts 0&#x2019;s and 1&#x2019;s.</tspan></text>
<text fill="white" xml:space="preserve" style="white-space: pre" font-family="Inter" font-size="16" letter-spacing="0em"><tspan x="232.281" y="214.318">Server multiplies  </tspan><tspan x="245.609" y="233.318">encryptions by&#10;</tspan><tspan x="221.031" y="252.318">the database, and&#10;</tspan><tspan x="208.562" y="271.318">adds up the results.</tspan></text>
<text fill="white" xml:space="preserve" style="white-space: pre" font-family="Inter" font-size="16" letter-spacing="0em"><tspan x="6" y="214.318">Client decrypts </tspan><tspan x="6" y="233.318">and gets the </tspan><tspan x="6" y="252.318">desired item.</tspan></text>
<rect x="207" y="82" width="24" height="24" transform="rotate(180 207 82)" fill="#B7B7B7"/>
<rect x="203" y="82" width="4" height="4" transform="rotate(180 203 82)" fill="#707070"/>
<rect x="199" y="78" width="4" height="4" transform="rotate(180 199 78)" fill="#707070"/>
<rect x="199" y="70" width="4" height="4" transform="rotate(180 199 70)" fill="#707070"/>
<rect x="199" y="62" width="4" height="4" transform="rotate(180 199 62)" fill="#707070"/>
<rect x="191" y="82" width="4" height="4" transform="rotate(180 191 82)" fill="#707070"/>
<rect x="199" y="74" width="4" height="4" transform="rotate(180 199 74)" fill="#707070"/>
<rect x="187" y="66" width="4" height="4" transform="rotate(180 187 66)" fill="#707070"/>
<rect x="207" y="70" width="4" height="4" transform="rotate(180 207 70)" fill="#707070"/>
<rect x="207" y="66" width="4" height="4" transform="rotate(180 207 66)" fill="#707070"/>
<rect x="195" y="82" width="4" height="4" transform="rotate(180 195 82)" fill="#707070"/>
<rect x="191" y="78" width="4" height="4" transform="rotate(180 191 78)" fill="#707070"/>
<rect x="195" y="66" width="4" height="4" transform="rotate(180 195 66)" fill="#707070"/>
<rect x="195" y="74" width="4" height="4" transform="rotate(180 195 74)" fill="#707070"/>
<rect x="191" y="66" width="4" height="4" transform="rotate(180 191 66)" fill="#707070"/>
<rect x="191" y="62" width="4" height="4" transform="rotate(180 191 62)" fill="#707070"/>
<rect x="187" y="74" width="4" height="4" transform="rotate(180 187 74)" fill="#707070"/>
<rect x="203" y="74" width="4" height="4" transform="rotate(180 203 74)" fill="#707070"/>
<rect x="183" y="138" width="24" height="24" transform="rotate(-90 183 138)" fill="#B7B7B7"/>
<rect x="183" y="134" width="4" height="4" transform="rotate(-90 183 134)" fill="#707070"/>
<rect x="203" y="118" width="4" height="4" transform="rotate(-90 203 118)" fill="#707070"/>
<rect x="195" y="134" width="4" height="4" transform="rotate(-90 195 134)" fill="#707070"/>
<rect x="203" y="130" width="4" height="4" transform="rotate(-90 203 130)" fill="#707070"/>
<rect x="191" y="130" width="4" height="4" transform="rotate(-90 191 130)" fill="#707070"/>
<rect x="187" y="138" width="4" height="4" transform="rotate(-90 187 138)" fill="#707070"/>
<rect x="199" y="118" width="4" height="4" transform="rotate(-90 199 118)" fill="#707070"/>
<rect x="195" y="138" width="4" height="4" transform="rotate(-90 195 138)" fill="#707070"/>
<rect x="183" y="130" width="4" height="4" transform="rotate(-90 183 130)" fill="#707070"/>
<rect x="183" y="126" width="4" height="4" transform="rotate(-90 183 126)" fill="#707070"/>
<rect x="187" y="118" width="4" height="4" transform="rotate(-90 187 118)" fill="#707070"/>
<rect x="203" y="134" width="4" height="4" transform="rotate(-90 203 134)" fill="#707070"/>
<rect x="191" y="126" width="4" height="4" transform="rotate(-90 191 126)" fill="#707070"/>
<rect x="195" y="126" width="4" height="4" transform="rotate(-90 195 126)" fill="#707070"/>
<rect x="203" y="122" width="4" height="4" transform="rotate(-90 203 122)" fill="#707070"/>
<rect x="191" y="118" width="4" height="4" transform="rotate(-90 191 118)" fill="#707070"/>
<rect x="199" y="134" width="4" height="4" transform="rotate(-90 199 134)" fill="#707070"/>
<rect x="183" y="86" width="24" height="24" fill="#B7B7B7"/>
<rect x="187" y="86" width="4" height="4" fill="#707070"/>
<rect x="191" y="98" width="4" height="4" fill="#707070"/>
<rect x="187" y="94" width="4" height="4" fill="#707070"/>
<rect x="195" y="102" width="4" height="4" fill="#707070"/>
<rect x="191" y="94" width="4" height="4" fill="#707070"/>
<rect x="183" y="90" width="4" height="4" fill="#707070"/>
<rect x="203" y="102" width="4" height="4" fill="#707070"/>
<rect x="183" y="98" width="4" height="4" fill="#707070"/>
<rect x="191" y="86" width="4" height="4" fill="#707070"/>
<rect x="195" y="86" width="4" height="4" fill="#707070"/>
<rect x="203" y="90" width="4" height="4" fill="#707070"/>
<rect x="183" y="106" width="4" height="4" fill="#707070"/>
<rect x="195" y="90" width="4" height="4" fill="#707070"/>
<rect x="195" y="98" width="4" height="4" fill="#707070"/>
<rect x="199" y="106" width="4" height="4" fill="#707070"/>
<rect x="203" y="94" width="4" height="4" fill="#707070"/>
<rect x="187" y="102" width="4" height="4" fill="#707070"/>
<rect x="298" y="164" width="24" height="24" fill="#B7B7B7"/>
<rect x="302" y="164" width="4" height="4" fill="#707070"/>
<rect x="306" y="168" width="4" height="4" fill="#707070"/>
<rect x="306" y="176" width="4" height="4" fill="#707070"/>
<rect x="306" y="184" width="4" height="4" fill="#707070"/>
<rect x="314" y="164" width="4" height="4" fill="#707070"/>
<rect x="306" y="172" width="4" height="4" fill="#707070"/>
<rect x="318" y="176" width="4" height="4" fill="#707070"/>
<rect x="298" y="176" width="4" height="4" fill="#707070"/>
<rect x="298" y="180" width="4" height="4" fill="#707070"/>
<rect x="310" y="164" width="4" height="4" fill="#707070"/>
<rect x="298" y="172" width="4" height="4" fill="#707070"/>
<rect x="310" y="180" width="4" height="4" fill="#707070"/>
<rect x="310" y="172" width="4" height="4" fill="#707070"/>
<rect x="314" y="180" width="4" height="4" fill="#707070"/>
<rect x="318" y="184" width="4" height="4" fill="#707070"/>
<rect x="318" y="172" width="4" height="4" fill="#707070"/>
<rect x="302" y="180" width="4" height="4" fill="#707070"/>
<rect width="24" height="24" transform="matrix(1 0 0 -1 250 188)" fill="#B7B7B7"/>
<rect width="4" height="4" transform="matrix(1 0 0 -1 254 188)" fill="#707070"/>
<rect width="4" height="4" transform="matrix(1 0 0 -1 270 168)" fill="#707070"/>
<rect width="4" height="4" transform="matrix(1 0 0 -1 254 176)" fill="#707070"/>
<rect width="4" height="4" transform="matrix(1 0 0 -1 258 168)" fill="#707070"/>
<rect width="4" height="4" transform="matrix(1 0 0 -1 258 180)" fill="#707070"/>
<rect width="4" height="4" transform="matrix(1 0 0 -1 250 184)" fill="#707070"/>
<rect width="4" height="4" transform="matrix(1 0 0 -1 262 172)" fill="#707070"/>
<rect width="4" height="4" transform="matrix(1 0 0 -1 250 176)" fill="#707070"/>
<rect width="4" height="4" transform="matrix(1 0 0 -1 258 188)" fill="#707070"/>
<rect width="4" height="4" transform="matrix(1 0 0 -1 262 188)" fill="#707070"/>
<rect width="4" height="4" transform="matrix(1 0 0 -1 270 184)" fill="#707070"/>
<rect width="4" height="4" transform="matrix(1 0 0 -1 254 168)" fill="#707070"/>
<rect width="4" height="4" transform="matrix(1 0 0 -1 266 184)" fill="#707070"/>
<rect width="4" height="4" transform="matrix(1 0 0 -1 262 176)" fill="#707070"/>
<rect width="4" height="4" transform="matrix(1 0 0 -1 266 168)" fill="#707070"/>
<rect width="4" height="4" transform="matrix(1 0 0 -1 270 180)" fill="#707070"/>
<rect width="4" height="4" transform="matrix(1 0 0 -1 254 172)" fill="#707070"/>
<rect width="24" height="24" transform="matrix(-4.37114e-08 1 1 4.37114e-08 274 164)" fill="#B7B7B7"/>
<rect width="4" height="4" transform="matrix(-4.37114e-08 1 1 4.37114e-08 290 180)" fill="#707070"/>
<rect width="4" height="4" transform="matrix(-4.37114e-08 1 1 4.37114e-08 286 172)" fill="#707070"/>
<rect width="4" height="4" transform="matrix(-4.37114e-08 1 1 4.37114e-08 282 168)" fill="#707070"/>
<rect width="4" height="4" transform="matrix(-4.37114e-08 1 1 4.37114e-08 286 164)" fill="#707070"/>
<rect width="4" height="4" transform="matrix(-4.37114e-08 1 1 4.37114e-08 274 180)" fill="#707070"/>
<rect width="4" height="4" transform="matrix(-4.37114e-08 1 1 4.37114e-08 278 164)" fill="#707070"/>
<rect width="4" height="4" transform="matrix(-4.37114e-08 1 1 4.37114e-08 290 184)" fill="#707070"/>
<rect width="4" height="4" transform="matrix(-4.37114e-08 1 1 4.37114e-08 282 172)" fill="#707070"/>
<rect width="4" height="4" transform="matrix(-4.37114e-08 1 1 4.37114e-08 290 172)" fill="#707070"/>
<rect width="4" height="4" transform="matrix(-4.37114e-08 1 1 4.37114e-08 278 172)" fill="#707070"/>
<rect width="4" height="4" transform="matrix(-4.37114e-08 1 1 4.37114e-08 278 184)" fill="#707070"/>
<rect width="4" height="4" transform="matrix(-4.37114e-08 1 1 4.37114e-08 294 180)" fill="#707070"/>
<rect width="4" height="4" transform="matrix(-4.37114e-08 1 1 4.37114e-08 278 176)" fill="#707070"/>
<rect width="4" height="4" transform="matrix(-4.37114e-08 1 1 4.37114e-08 286 176)" fill="#707070"/>
<rect width="4" height="4" transform="matrix(-4.37114e-08 1 1 4.37114e-08 294 172)" fill="#707070"/>
<rect width="4" height="4" transform="matrix(-4.37114e-08 1 1 4.37114e-08 282 184)" fill="#707070"/>
<rect width="4" height="4" transform="matrix(-4.37114e-08 1 1 4.37114e-08 290 168)" fill="#707070"/>
<rect x="54" y="58" width="24" height="24" fill="#00427E"/>
<text fill="#7693BF" xml:space="preserve" style="white-space: pre" font-family="Inter" font-size="16" letter-spacing="0em"><tspan x="61" y="75.8182">0</tspan></text>
<rect x="250" y="58" width="72" height="24" fill="#00427E"/>
<text fill="#7693BF" xml:space="preserve" style="white-space: pre" font-family="Inter" font-size="16" font-style="italic" letter-spacing="0em"><tspan x="259.383" y="75.8182">&#x201c;alpha&#x201d;</tspan></text>
<rect x="54" y="114" width="24" height="24" fill="#00427E"/>
<text fill="#7693BF" xml:space="preserve" style="white-space: pre" font-family="Inter" font-size="16" letter-spacing="0em"><tspan x="61" y="131.818">0</tspan></text>
<rect x="250" y="114" width="72" height="24" fill="#00427E"/>
<text fill="#7693BF" xml:space="preserve" style="white-space: pre" font-family="Inter" font-size="16" font-style="italic" letter-spacing="0em"><tspan x="254.125" y="131.818">&#x201c;omega&#x201d;</tspan></text>
<rect x="54" y="86" width="24" height="24" fill="#0B7BE0"/>
<text fill="#DADCE0" xml:space="preserve" style="white-space: pre" font-family="Inter" font-size="16" letter-spacing="0em"><tspan x="62.2812" y="103.818">1</tspan></text>
<rect x="250" y="86" width="72" height="24" fill="#0B7BE0"/>
<text fill="#DADCE0" xml:space="preserve" style="white-space: pre" font-family="Inter" font-size="16" font-style="italic" letter-spacing="0em"><tspan x="262.852" y="103.818">&#x201c;beta&#x201d;</tspan></text>
<rect x="6" y="164" width="72" height="24" fill="#0B7BE0"/>
<text fill="#DADCE0" xml:space="preserve" style="white-space: pre" font-family="Inter" font-size="16" font-style="italic" letter-spacing="0em"><tspan x="18.8516" y="181.818">&#x201c;beta&#x201d;</tspan></text>
<path d="M223 74L232 65" stroke="#707070" stroke-width="3" stroke-linecap="square"/>
<path d="M223 65L232 74" stroke="#707070" stroke-width="3" stroke-linecap="square"/>
<path d="M223 102L232 93" stroke="#707070" stroke-width="3" stroke-linecap="square"/>
<path d="M223 93L232 102" stroke="#707070" stroke-width="3" stroke-linecap="square"/>
<path d="M223 130L232 121" stroke="#707070" stroke-width="3" stroke-linecap="square"/>
<path d="M223 121L232 130" stroke="#707070" stroke-width="3" stroke-linecap="square"/>
<path d="M339 129.364H351.728" stroke="#707070" stroke-width="3" stroke-linecap="square"/>
<path d="M345.364 123L345.364 135.728" stroke="#707070" stroke-width="3" stroke-linecap="square"/>
</svg>
