<svg width="390" height="205" viewBox="0 0 390 205" fill="none" xmlns="http://www.w3.org/2000/svg">
<g clip-path="url(#clip0_5_49)">
<rect x="5" y="30" width="140" height="171" rx="7" stroke="#6663E4" stroke-width="2" stroke-dasharray="4 4"/>
<text fill="#ECC3A5" xml:space="preserve" style="white-space: pre" font-family="Inter" font-size="16" font-weight="bold" letter-spacing="0em"><tspan x="210.258" y="108.318">Remote, untrusted</tspan></text>
<text fill="#B0AEFF" xml:space="preserve" style="white-space: pre" font-family="Inter" font-size="16" font-weight="bold" letter-spacing="0em"><tspan x="9.25781" y="22.3182">Local, trusted</tspan></text>
<rect x="85" y="41" width="36" height="60" rx="6" fill="#3C3A81"/>
<rect x="87" y="43" width="32" height="56" rx="4" fill="#6663E4"/>
<text fill="#B0AEFF" xml:space="preserve" style="white-space: pre" font-family="Inter" font-size="16" letter-spacing="0em"><tspan x="34.5156" y="67.3182">User </tspan><tspan x="20.0625" y="86.3182">device</tspan></text>
<text fill="#B0AEFF" xml:space="preserve" style="white-space: pre" font-family="Inter" font-size="16" letter-spacing="0em"><tspan x="29.3906" y="144.818">Open&#10;</tspan><tspan x="18.8594" y="163.818">source&#10;</tspan><tspan x="37.8594" y="182.818">SDK</tspan></text>
<rect x="85" y="140" width="36" height="36" rx="6" fill="#6663E4"/>
<text fill="white" xml:space="preserve" style="white-space: pre" font-family="Inter" font-size="12" font-weight="bold" letter-spacing="0em"><tspan x="90.5664" y="162.364">SDK</tspan></text>
<path d="M125.293 157.293C124.902 157.683 124.902 158.317 125.293 158.707L131.657 165.071C132.047 165.462 132.681 165.462 133.071 165.071C133.462 164.681 133.462 164.047 133.071 163.657L127.414 158L133.071 152.343C133.462 151.953 133.462 151.319 133.071 150.929C132.681 150.538 132.047 150.538 131.657 150.929L125.293 157.293ZM221.707 158.707C222.098 158.317 222.098 157.683 221.707 157.293L215.343 150.929C214.953 150.538 214.319 150.538 213.929 150.929C213.538 151.319 213.538 151.953 213.929 152.343L219.586 158L213.929 163.657C213.538 164.047 213.538 164.681 213.929 165.071C214.319 165.462 214.953 165.462 215.343 165.071L221.707 158.707ZM126 159H221V157H126V159Z" fill="white"/>
<path d="M102.293 135.707C102.683 136.098 103.317 136.098 103.707 135.707L110.071 129.343C110.462 128.953 110.462 128.319 110.071 127.929C109.681 127.538 109.047 127.538 108.657 127.929L103 133.586L97.3431 127.929C96.9526 127.538 96.3195 127.538 95.9289 127.929C95.5384 128.319 95.5384 128.953 95.9289 129.343L102.293 135.707ZM103.707 105.293C103.317 104.902 102.683 104.902 102.293 105.293L95.9289 111.657C95.5384 112.047 95.5384 112.681 95.9289 113.071C96.3195 113.462 96.9526 113.462 97.3431 113.071L103 107.414L108.657 113.071C109.047 113.462 109.681 113.462 110.071 113.071C110.462 112.681 110.462 112.047 110.071 111.657L103.707 105.293ZM104 135L104 106L102 106L102 135L104 135Z" fill="#6663E4"/>
<mask id="path-12-outside-1_5_49" maskUnits="userSpaceOnUse" x="224.5" y="133" width="64" height="61" fill="black">
<rect fill="white" x="224.5" y="133" width="64" height="61"/>
<path fill-rule="evenodd" clip-rule="evenodd" d="M285.5 135H227.5L235.434 184.586C235.43 184.64 235.429 184.693 235.429 184.747C235.429 188.753 244.863 192 256.5 192C268.138 192 277.572 188.753 277.572 184.747C277.572 184.693 277.57 184.639 277.566 184.585L285.5 135Z"/>
</mask>
<path fill-rule="evenodd" clip-rule="evenodd" d="M285.5 135H227.5L235.434 184.586C235.43 184.64 235.429 184.693 235.429 184.747C235.429 188.753 244.863 192 256.5 192C268.138 192 277.572 188.753 277.572 184.747C277.572 184.693 277.57 184.639 277.566 184.585L285.5 135Z" fill="#E49963"/>
<path d="M227.5 135V133H225.155L225.525 135.316L227.5 135ZM285.5 135L287.475 135.316L287.845 133H285.5V135ZM235.434 184.586L237.43 184.712L237.444 184.49L237.409 184.27L235.434 184.586ZM277.566 184.585L275.591 184.269L275.556 184.49L275.57 184.712L277.566 184.585ZM227.5 137H285.5V133H227.5V137ZM237.409 184.27L229.475 134.684L225.525 135.316L233.459 184.902L237.409 184.27ZM237.429 184.747C237.429 184.736 237.429 184.724 237.43 184.712L233.438 184.459C233.432 184.555 233.429 184.651 233.429 184.747H237.429ZM256.5 190C250.842 190 245.804 189.208 242.251 187.985C240.465 187.37 239.163 186.683 238.347 186.019C237.515 185.342 237.429 184.901 237.429 184.747H233.429C233.429 186.597 234.521 188.063 235.822 189.122C237.139 190.193 238.922 191.069 240.949 191.767C245.023 193.169 250.521 194 256.5 194V190ZM275.572 184.747C275.572 184.901 275.485 185.342 274.653 186.019C273.837 186.683 272.535 187.37 270.749 187.985C267.196 189.208 262.158 190 256.5 190V194C262.479 194 267.977 193.169 272.051 191.767C274.078 191.069 275.861 190.193 277.178 189.122C278.479 188.063 279.572 186.597 279.572 184.747H275.572ZM275.57 184.712C275.571 184.724 275.572 184.736 275.572 184.747H279.572C279.572 184.651 279.568 184.554 279.562 184.458L275.57 184.712ZM283.525 134.684L275.591 184.269L279.541 184.901L287.475 135.316L283.525 134.684Z" fill="#CC7E46" mask="url(#path-12-outside-1_5_49)"/>
<path d="M256.5 141C264.704 141 272.166 140.156 277.606 138.772C280.318 138.083 282.585 137.245 284.197 136.276C285.747 135.345 287 134.099 287 132.5C287 130.901 285.747 129.655 284.197 128.724C282.585 127.755 280.318 126.917 277.606 126.228C272.166 124.844 264.704 124 256.5 124C248.296 124 240.834 124.844 235.394 126.228C232.682 126.917 230.415 127.755 228.803 128.724C227.253 129.655 226 130.901 226 132.5C226 134.099 227.253 135.345 228.803 136.276C230.415 137.245 232.682 138.083 235.394 138.772C240.834 140.156 248.296 141 256.5 141Z" fill="#ECC3A5" stroke="#CC7E46" stroke-width="2"/>
<text fill="#ECC3A5" xml:space="preserve" style="white-space: pre" font-family="Inter" font-size="16" letter-spacing="0em"><tspan x="300" y="155.318">Bucket&#10;</tspan><tspan x="300" y="174.318">service</tspan></text>
<rect x="204" y="116" width="164" height="85" rx="7" stroke="#E49963" stroke-width="2" stroke-dasharray="4 4"/>
</g>
<defs>
<clipPath id="clip0_5_49">
<rect width="390" height="205" fill="white"/>
</clipPath>
</defs>
</svg>
