<svg width="390" height="205" viewBox="0 0 390 205" fill="none" xmlns="http://www.w3.org/2000/svg">
<rect width="390" height="205" fill="white"/>
<path d="M229.289 132.421C228.89 130.503 228.682 128.524 228.682 126.5C228.682 109.103 244.089 95 263.096 95C274.725 95 285.007 100.28 291.236 108.364C297.216 103.768 304.93 101 313.349 101C332.173 101 347.467 114.833 347.759 132H347.763C368.881 132 386 147.67 386 167C386 186.33 368.881 202 347.763 202H235.237C214.119 202 197 186.33 197 167C197 149.521 210.996 135.036 229.289 132.421Z" fill="#F7E2D3"/>
<rect opacity="0.28" x="4" y="29" width="137" height="173" rx="8" fill="#6663E4"/>
<text fill="#E49963" xml:space="preserve" style="white-space: pre" font-family="Inter" font-size="16" font-weight="bold" letter-spacing="0em"><tspan x="197" y="80.3182">Cloud, untrusted</tspan></text>
<text fill="#6663E4" xml:space="preserve" style="white-space: pre" font-family="Inter" font-size="16" font-weight="bold" letter-spacing="0em"><tspan x="12" y="21.3182">Local, trusted</tspan></text>
<rect x="85" y="41" width="36" height="60" rx="6" fill="#636363"/>
<rect x="87" y="43" width="32" height="56" rx="4" fill="#858585"/>
<text fill="#636363" xml:space="preserve" style="white-space: pre" font-family="Inter" font-size="16" letter-spacing="0em"><tspan x="34.5156" y="67.3182">User </tspan><tspan x="20.0625" y="86.3182">device</tspan></text>
<text fill="#636363" xml:space="preserve" style="white-space: pre" font-family="Inter" font-size="16" letter-spacing="0em"><tspan x="316" y="159.318">Bucket&#10;</tspan><tspan x="316" y="178.318">service</tspan></text>
<text fill="#636363" xml:space="preserve" style="white-space: pre" font-family="Inter" font-size="16" letter-spacing="0em"><tspan x="29.3906" y="144.818">Open&#10;</tspan><tspan x="18.8594" y="163.818">source&#10;</tspan><tspan x="37.8594" y="182.818">SDK</tspan></text>
<rect x="85" y="140" width="36" height="36" rx="6" fill="#636363"/>
<text fill="white" xml:space="preserve" style="white-space: pre" font-family="Inter" font-size="12" font-weight="bold" letter-spacing="0em"><tspan x="90.5664" y="162.364">SDK</tspan></text>
<path d="M125.293 157.293C124.902 157.683 124.902 158.317 125.293 158.707L131.657 165.071C132.047 165.462 132.681 165.462 133.071 165.071C133.462 164.681 133.462 164.047 133.071 163.657L127.414 158L133.071 152.343C133.462 151.953 133.462 151.319 133.071 150.929C132.681 150.538 132.047 150.538 131.657 150.929L125.293 157.293ZM241.707 158.707C242.098 158.317 242.098 157.683 241.707 157.293L235.343 150.929C234.953 150.538 234.319 150.538 233.929 150.929C233.538 151.319 233.538 151.953 233.929 152.343L239.586 158L233.929 163.657C233.538 164.047 233.538 164.681 233.929 165.071C234.319 165.462 234.953 165.462 235.343 165.071L241.707 158.707ZM126 159H241V157H126V159Z" fill="#E4637C"/>
<path d="M102.293 135.707C102.683 136.098 103.317 136.098 103.707 135.707L110.071 129.343C110.462 128.953 110.462 128.319 110.071 127.929C109.681 127.538 109.047 127.538 108.657 127.929L103 133.586L97.3431 127.929C96.9526 127.538 96.3195 127.538 95.9289 127.929C95.5384 128.319 95.5384 128.953 95.9289 129.343L102.293 135.707ZM103.707 105.293C103.317 104.902 102.683 104.902 102.293 105.293L95.9289 111.657C95.5384 112.047 95.5384 112.681 95.9289 113.071C96.3195 113.462 96.9526 113.462 97.3431 113.071L103 107.414L108.657 113.071C109.047 113.462 109.681 113.462 110.071 113.071C110.462 112.681 110.462 112.047 110.071 111.657L103.707 105.293ZM104 135L104 106L102 106L102 135L104 135Z" fill="#636363"/>
<mask id="path-14-outside-1_5_49" maskUnits="userSpaceOnUse" x="245.5" y="133" width="64" height="61" fill="black">
<rect fill="white" x="245.5" y="133" width="64" height="61"/>
<path fill-rule="evenodd" clip-rule="evenodd" d="M306.5 135H248.5L256.434 184.586C256.43 184.64 256.429 184.693 256.429 184.747C256.429 188.753 265.863 192 277.5 192C289.138 192 298.572 188.753 298.572 184.747C298.572 184.693 298.57 184.639 298.566 184.585L306.5 135Z"/>
</mask>
<path fill-rule="evenodd" clip-rule="evenodd" d="M306.5 135H248.5L256.434 184.586C256.43 184.64 256.429 184.693 256.429 184.747C256.429 188.753 265.863 192 277.5 192C289.138 192 298.572 188.753 298.572 184.747C298.572 184.693 298.57 184.639 298.566 184.585L306.5 135Z" fill="#F68E9D"/>
<path d="M248.5 135V133H246.155L246.525 135.316L248.5 135ZM306.5 135L308.475 135.316L308.845 133H306.5V135ZM256.434 184.586L258.43 184.712L258.444 184.49L258.409 184.27L256.434 184.586ZM298.566 184.585L296.591 184.269L296.556 184.49L296.57 184.712L298.566 184.585ZM248.5 137H306.5V133H248.5V137ZM258.409 184.27L250.475 134.684L246.525 135.316L254.459 184.902L258.409 184.27ZM258.429 184.747C258.429 184.736 258.429 184.724 258.43 184.712L254.438 184.459C254.432 184.555 254.429 184.651 254.429 184.747H258.429ZM277.5 190C271.842 190 266.804 189.208 263.251 187.985C261.465 187.37 260.163 186.683 259.347 186.019C258.515 185.342 258.429 184.901 258.429 184.747H254.429C254.429 186.597 255.521 188.063 256.822 189.122C258.139 190.193 259.922 191.069 261.949 191.767C266.023 193.169 271.521 194 277.5 194V190ZM296.572 184.747C296.572 184.901 296.485 185.342 295.653 186.019C294.837 186.683 293.535 187.37 291.749 187.985C288.196 189.208 283.158 190 277.5 190V194C283.479 194 288.977 193.169 293.051 191.767C295.078 191.069 296.861 190.193 298.178 189.122C299.479 188.063 300.572 186.597 300.572 184.747H296.572ZM296.57 184.712C296.571 184.724 296.572 184.736 296.572 184.747H300.572C300.572 184.651 300.568 184.554 300.562 184.458L296.57 184.712ZM304.525 134.684L296.591 184.269L300.541 184.901L308.475 135.316L304.525 134.684Z" fill="#E4637C" mask="url(#path-14-outside-1_5_49)"/>
<path d="M277.5 141C285.704 141 293.166 140.156 298.606 138.772C301.318 138.083 303.585 137.245 305.197 136.276C306.747 135.345 308 134.099 308 132.5C308 130.901 306.747 129.655 305.197 128.724C303.585 127.755 301.318 126.917 298.606 126.228C293.166 124.844 285.704 124 277.5 124C269.296 124 261.834 124.844 256.394 126.228C253.682 126.917 251.415 127.755 249.803 128.724C248.253 129.655 247 130.901 247 132.5C247 134.099 248.253 135.345 249.803 136.276C251.415 137.245 253.682 138.083 256.394 138.772C261.834 140.156 269.296 141 277.5 141Z" fill="#EEB5BE" stroke="#E4637C" stroke-width="2"/>
</svg>
